<svg width="163" height="58" viewBox="0 0 163 58" fill="none" xmlns="http://www.w3.org/2000/svg">
<path d="M156.576 0H6C2.68629 0 0 2.68629 0 6V52C0 55.3137 2.68629 58 6 58H156.576C159.89 58 162.576 55.3137 162.576 52V6C162.576 2.68629 159.89 0 156.576 0Z" fill="white"/>
<path d="M156.576 0H6C2.68629 0 0 2.68629 0 6V52C0 55.3137 2.68629 58 6 58H156.576C159.89 58 162.576 55.3137 162.576 52V6C162.576 2.68629 159.89 0 156.576 0Z" fill="white"/>
<path d="M58.4147 17.6484C58.4147 18.55 58.1382 19.2721 57.5935 19.8107C56.9673 20.4491 56.1516 20.7704 55.1521 20.7704C54.1968 20.7704 53.3812 20.4437 52.7121 19.7999C52.0416 19.1466 51.707 18.3449 51.707 17.3852C51.707 16.4255 52.0416 15.6238 52.7121 14.9759C53.3812 14.3266 54.1968 14 55.1521 14C55.6277 14 56.0811 14.0958 56.5138 14.274C56.9452 14.4535 57.2963 14.6965 57.5507 14.9961L56.9728 15.5657C56.5291 15.0542 55.9249 14.8018 55.1521 14.8018C54.4554 14.8018 53.8512 15.0393 53.3383 15.5185C52.831 15.999 52.5766 16.6212 52.5766 17.3852C52.5766 18.1491 52.831 18.7768 53.3383 19.2573C53.8512 19.7311 54.4554 19.974 55.1521 19.974C55.8917 19.974 56.5138 19.7311 57.0046 19.2519C57.3281 18.9347 57.512 18.4974 57.5604 17.9386H55.1521V17.1584H58.365C58.4037 17.3271 58.4147 17.4905 58.4147 17.6484Z" fill="#19145C" stroke="#19145C" stroke-width="0.4" stroke-miterlimit="10"/>
<path d="M63.5128 14.9434H60.4949V16.9951H63.2156V17.7752H60.4949V19.8269H63.5128V20.6219H59.6406V14.1484H63.5128V14.9434Z" fill="#19145C" stroke="#19145C" stroke-width="0.4" stroke-miterlimit="10"/>
<path d="M67.1077 20.6219H66.2534V14.9434H64.4023V14.1484H68.9602V14.9434H67.1077V20.6219Z" fill="#19145C" stroke="#19145C" stroke-width="0.4" stroke-miterlimit="10"/>
<path d="M72.2617 20.6219V14.1484H73.1146V20.6219H72.2617Z" fill="#19145C" stroke="#19145C" stroke-width="0.4" stroke-miterlimit="10"/>
<path d="M76.893 20.6219H76.0455V14.9434H74.1875V14.1484H78.751V14.9434H76.893V20.6219Z" fill="#19145C" stroke="#19145C" stroke-width="0.4" stroke-miterlimit="10"/>
<path d="M87.3827 19.7891C86.7288 20.4437 85.9187 20.7704 84.9524 20.7704C83.9805 20.7704 83.1704 20.4437 82.5165 19.7891C81.864 19.1358 81.5391 18.3341 81.5391 17.3852C81.5391 16.4363 81.864 15.6346 82.5165 14.9813C83.1704 14.3266 83.9805 14 84.9524 14C85.9132 14 86.7233 14.3266 87.3772 14.9867C88.0353 15.6454 88.3601 16.4417 88.3601 17.3852C88.3601 18.3341 88.0353 19.1358 87.3827 19.7891ZM83.1483 19.2465C83.6404 19.7311 84.239 19.974 84.9524 19.974C85.6602 19.974 86.2643 19.7311 86.751 19.2465C87.2417 18.7619 87.4906 18.1397 87.4906 17.3852C87.4906 16.6307 87.2417 16.0084 86.751 15.5239C86.2643 15.0393 85.6602 14.7964 84.9524 14.7964C84.239 14.7964 83.6404 15.0393 83.1483 15.5239C82.6575 16.0084 82.4086 16.6307 82.4086 17.3852C82.4086 18.1397 82.6575 18.7619 83.1483 19.2465Z" fill="#19145C" stroke="#19145C" stroke-width="0.4" stroke-miterlimit="10"/>
<path d="M89.5586 20.6219V14.1484H90.5955L93.8194 19.183H93.8567L93.8194 17.9385V14.1484H94.6724V20.6219H93.782L90.4061 15.3389H90.3687L90.4061 16.5888V20.6219H89.5586Z" fill="#19145C" stroke="#19145C" stroke-width="0.4" stroke-miterlimit="10"/>
<path d="M81.3256 30.0757C78.728 30.0757 76.6059 32.0058 76.6059 34.6689C76.6059 37.3104 78.728 39.2608 81.3256 39.2608C83.9288 39.2608 86.0509 37.3104 86.0509 34.6689C86.0509 32.0058 83.9288 30.0757 81.3256 30.0757ZM81.3256 37.4521C79.9003 37.4521 78.6741 36.3035 78.6741 34.6689C78.6741 33.0128 79.9003 31.8844 81.3256 31.8844C82.7509 31.8844 83.9827 33.0128 83.9827 34.6689C83.9827 36.3035 82.7509 37.4521 81.3256 37.4521ZM71.0277 30.0757C68.4245 30.0757 66.3079 32.0058 66.3079 34.6689C66.3079 37.3104 68.4245 39.2608 71.0277 39.2608C73.6294 39.2608 75.7474 37.3104 75.7474 34.6689C75.7474 32.0058 73.6294 30.0757 71.0277 30.0757ZM71.0277 37.4521C69.601 37.4521 68.3706 36.3035 68.3706 34.6689C68.3706 33.0128 69.601 31.8844 71.0277 31.8844C72.453 31.8844 73.6792 33.0128 73.6792 34.6689C73.6792 36.3035 72.453 37.4521 71.0277 37.4521ZM58.7735 31.4835V33.4352H63.5472C63.4075 34.5258 63.0343 35.3276 62.4619 35.8864C61.7652 36.5613 60.6799 37.3104 58.7735 37.3104C55.8358 37.3104 53.5354 34.9956 53.5354 32.1273C53.5354 29.2591 55.8358 26.9443 58.7735 26.9443C60.362 26.9443 61.5177 27.5503 62.3707 28.3359L63.7794 26.9605C62.5864 25.8483 60.9993 24.9939 58.7735 24.9939C54.745 24.9939 51.3594 28.1941 51.3594 32.1273C51.3594 36.0605 54.745 39.2608 58.7735 39.2608C60.9509 39.2608 62.5863 38.5643 63.872 37.2577C65.1895 35.9714 65.6001 34.1628 65.6001 32.7023C65.6001 32.2488 65.5614 31.8317 65.4923 31.4835H58.7735ZM108.882 32.9966C108.493 31.9694 107.295 30.0757 104.853 30.0757C102.434 30.0757 100.42 31.937 100.42 34.6689C100.42 37.2415 102.413 39.2608 105.086 39.2608C107.246 39.2608 108.493 37.9745 109.006 37.2253L107.403 36.182C106.868 36.9459 106.139 37.4521 105.086 37.4521C104.039 37.4521 103.288 36.9837 102.807 36.0605L109.099 33.5189L108.882 32.9966ZM102.467 34.5258C102.413 32.755 103.876 31.8479 104.924 31.8479C105.745 31.8479 106.442 32.2488 106.674 32.8224L102.467 34.5258ZM97.3539 38.9814H99.422V25.4838H97.3539V38.9814ZM93.9668 31.0988H93.8977C93.4332 30.5616 92.5471 30.0757 91.4245 30.0757C89.0688 30.0757 86.9149 32.0949 86.9149 34.6838C86.9149 37.2577 89.0688 39.2608 91.4245 39.2608C92.5471 39.2608 93.4332 38.7708 93.8977 38.2174H93.9668V38.8761C93.9668 40.6321 93.006 41.5756 91.4563 41.5756C90.1927 41.5756 89.4089 40.6848 89.0854 39.9357L87.2868 40.6686C87.8052 41.886 89.178 43.3843 91.4563 43.3843C93.8811 43.3843 95.9272 41.9913 95.9272 38.6021V30.3551H93.9668V31.0988ZM91.6015 37.4521C90.1761 37.4521 88.9831 36.2873 88.9831 34.6838C88.9831 33.0654 90.1761 31.8844 91.6015 31.8844C93.006 31.8844 94.1134 33.0654 94.1134 34.6838C94.1134 36.2873 93.006 37.4521 91.6015 37.4521ZM118.565 25.4838H113.618V38.9814H115.681V33.8672H118.565C120.855 33.8672 123.102 32.2488 123.102 29.6748C123.102 27.1022 120.85 25.4838 118.565 25.4838ZM118.619 31.9896H115.681V27.3613H118.619C120.159 27.3613 121.038 28.6099 121.038 29.6748C121.038 30.7195 120.159 31.9896 118.619 31.9896ZM131.369 30.0501C129.879 30.0501 128.329 30.6925 127.692 32.1165L129.522 32.8656C129.916 32.1165 130.64 31.8736 131.406 31.8736C132.476 31.8736 133.562 32.5012 133.578 33.6094V33.7511C133.205 33.5405 132.406 33.2287 131.423 33.2287C129.452 33.2287 127.443 34.2883 127.443 36.2657C127.443 38.0743 129.058 39.2392 130.873 39.2392C132.261 39.2392 133.027 38.6277 133.508 37.9164H133.578V38.9598H135.57V33.7821C135.57 31.389 133.74 30.0501 131.369 30.0501ZM131.12 37.4467C130.446 37.4467 129.505 37.1201 129.505 36.3035C129.505 35.2588 130.678 34.8579 131.693 34.8579C132.601 34.8579 133.027 35.0536 133.578 35.3114C133.416 36.5613 132.315 37.4467 131.12 37.4467ZM142.828 30.3456L140.457 36.1968H140.387L137.936 30.3456H135.711L139.394 38.5225L137.293 43.0725H139.448L145.123 30.3456H142.828ZM124.236 38.9814H126.304V25.4838H124.236V38.9814Z" fill="#19145C"/>
<path d="M17.5129 14.7274C17.188 15.0595 17 15.5764 17 16.2459V40.1258C17 40.7953 17.188 41.3122 17.5129 41.6443L17.5931 41.7172L31.2988 28.3411V28.0252L17.5931 14.6492L17.5129 14.7274Z" fill="url(#paint0_linear_10125:75784)"/>
<path d="M35.8604 32.8022L31.2969 28.3413V28.0254L35.8659 23.5645L35.9682 23.6225L41.3792 26.6284C42.9234 27.4815 42.9234 28.8852 41.3792 29.7437L35.9682 32.7442L35.8604 32.8022Z" fill="url(#paint1_linear_10125:75784)"/>
<path d="M35.969 32.744L31.2976 28.1832L17.5117 41.6443C18.0246 42.1707 18.861 42.2342 19.8121 41.7078L35.969 32.744Z" fill="url(#paint2_linear_10125:75784)"/>
<path d="M35.969 23.6223L19.8121 14.6586C18.861 14.1376 18.0246 14.201 17.5117 14.7274L31.2976 28.1831L35.969 23.6223Z" fill="url(#paint3_linear_10125:75784)"/>
<defs>
<linearGradient id="paint0_linear_10125:75784" x1="30.0819" y1="40.3745" x2="11.9654" y2="21.819" gradientUnits="userSpaceOnUse">
<stop stop-color="#00A0FF"/>
<stop offset="0.0066" stop-color="#00A1FF"/>
<stop offset="0.2601" stop-color="#00BEFF"/>
<stop offset="0.5122" stop-color="#00D2FF"/>
<stop offset="0.7604" stop-color="#00DFFF"/>
<stop offset="1" stop-color="#00E3FF"/>
</linearGradient>
<linearGradient id="paint1_linear_10125:75784" x1="43.39" y1="28.1818" x2="16.629" y2="28.1818" gradientUnits="userSpaceOnUse">
<stop stop-color="#FFE000"/>
<stop offset="0.4087" stop-color="#FFBD00"/>
<stop offset="0.7754" stop-color="#FFA500"/>
<stop offset="1" stop-color="#FF9C00"/>
</linearGradient>
<linearGradient id="paint2_linear_10125:75784" x1="33.4288" y1="25.7039" x2="8.86137" y2="0.541122" gradientUnits="userSpaceOnUse">
<stop stop-color="#FF3A44"/>
<stop offset="1" stop-color="#C31162"/>
</linearGradient>
<linearGradient id="paint3_linear_10125:75784" x1="14.0415" y1="49.589" x2="25.012" y2="38.3528" gradientUnits="userSpaceOnUse">
<stop stop-color="#32A071"/>
<stop offset="0.0685" stop-color="#2DA771"/>
<stop offset="0.4762" stop-color="#15CF74"/>
<stop offset="0.8009" stop-color="#06E775"/>
<stop offset="1" stop-color="#00F076"/>
</linearGradient>
</defs>
</svg>
