<svg width="1440" height="572" viewBox="0 0 1440 572" fill="none" xmlns="http://www.w3.org/2000/svg">
<g clip-path="url(#clip0_9896:82319)">
<rect width="1440" height="572" fill="#FFE9CA"/>
<g opacity="0.2">
<path d="M1051.99 124.031C1076.57 104.735 1112.79 114.441 1124.43 143.443L1182.64 288.453C1197.03 324.301 1164.32 361.191 1127 351.193L945.887 302.663C908.574 292.665 898.69 244.361 929.075 220.51L1051.99 124.031Z" fill="#3A3391"/>
<rect x="902.234" y="646.832" width="281.259" height="93.7529" rx="46.8765" transform="rotate(-75 902.234 646.832)" fill="#22B94C"/>
</g>
<g opacity="0.2">
<path d="M1365.99 211.031C1390.57 191.735 1426.79 201.441 1438.43 230.443L1496.64 375.453C1511.03 411.301 1478.32 448.191 1441 438.193L1259.89 389.663C1222.57 379.665 1212.69 331.361 1243.08 307.51L1365.99 211.031Z" fill="#3A3391"/>
<rect x="1216.23" y="733.832" width="281.259" height="93.7529" rx="46.8765" transform="rotate(-75 1216.23 733.832)" fill="#22B94C"/>
</g>
</g>
<defs>
<clipPath id="clip0_9896:82319">
<rect width="1440" height="572" fill="white"/>
</clipPath>
</defs>
</svg>
