<svg width="189" height="32" viewBox="0 0 189 32" fill="none" xmlns="http://www.w3.org/2000/svg">
<path d="M44.0221 31.678C40.6352 31.678 37.9638 30.8552 36.008 29.2094C34.0522 27.5637 33.0147 25.1427 32.8954 21.9466C32.8715 21.2788 32.8596 20.2532 32.8596 18.8698C32.8596 17.4864 32.8715 16.4489 32.8954 15.7572C32.9908 12.6088 34.0283 10.1879 36.008 8.49441C38.0115 6.77711 40.6829 5.91846 44.0221 5.91846C47.3375 5.91846 49.985 6.77711 51.9646 8.49441C53.9682 10.1879 55.0176 12.6088 55.113 15.7572C55.1607 17.1406 55.1846 18.1781 55.1846 18.8698C55.1846 19.5853 55.1607 20.611 55.113 21.9466C54.9938 25.1427 53.9562 27.5637 52.0004 29.2094C50.0684 30.8552 47.409 31.678 44.0221 31.678ZM44.0221 26.3115C45.2624 26.3115 46.2522 25.9418 46.9916 25.2024C47.731 24.4391 48.1246 23.2823 48.1723 21.732C48.22 20.3486 48.2438 19.3588 48.2438 18.7625C48.2438 18.1662 48.22 17.2002 48.1723 15.8645C48.1246 14.3142 47.731 13.1693 46.9916 12.4299C46.2522 11.6667 45.2624 11.285 44.0221 11.285C42.758 11.285 41.7562 11.6667 41.0168 12.4299C40.2774 13.1693 39.8839 14.3142 39.8362 15.8645C39.8123 16.5324 39.8004 17.4983 39.8004 18.7625C39.8004 20.0504 39.8123 21.0403 39.8362 21.732C39.8839 23.2823 40.2774 24.4391 41.0168 25.2024C41.7562 25.9418 42.758 26.3115 44.0221 26.3115Z" fill="#22B94C"/>
<path d="M59.4007 31.3203C59.1622 31.3203 58.9475 31.2368 58.7567 31.0698C58.5897 30.879 58.5063 30.6643 58.5063 30.4258V7.20644C58.5063 6.94407 58.5897 6.72941 58.7567 6.56245C58.9237 6.37163 59.1383 6.27623 59.4007 6.27623H63.4435C63.9921 6.27623 64.3976 6.50282 64.6599 6.95599L73.1034 20.3009V7.20644C73.1034 6.94407 73.1868 6.72941 73.3538 6.56245C73.5208 6.37163 73.7354 6.27623 73.9978 6.27623H78.5415C78.8039 6.27623 79.0185 6.37163 79.1855 6.56245C79.3524 6.72941 79.4359 6.94407 79.4359 7.20644V30.3901C79.4359 30.6524 79.3524 30.879 79.1855 31.0698C79.0185 31.2368 78.8039 31.3203 78.5415 31.3203H74.4987C73.9501 31.3203 73.5446 31.0937 73.2822 30.6405L64.8746 17.8323V30.4258C64.8746 30.6882 64.7792 30.9029 64.5884 31.0698C64.4214 31.2368 64.2068 31.3203 63.9444 31.3203H59.4007Z" fill="#22B94C"/>
<path d="M84.4699 31.3203C84.2314 31.3203 84.0167 31.2368 83.8259 31.0698C83.6589 30.879 83.5755 30.6643 83.5755 30.4258V7.20644C83.5755 6.94407 83.6589 6.72941 83.8259 6.56245C83.9929 6.37163 84.2075 6.27623 84.4699 6.27623H101.357C101.619 6.27623 101.834 6.37163 102.001 6.56245C102.192 6.72941 102.287 6.94407 102.287 7.20644V10.7484C102.287 11.0107 102.192 11.2254 102.001 11.3924C101.834 11.5593 101.619 11.6428 101.357 11.6428H90.0511V16.1865H100.57C100.832 16.1865 101.047 16.2819 101.214 16.4727C101.404 16.6397 101.5 16.8544 101.5 17.1167V20.3724C101.5 20.6348 101.404 20.8614 101.214 21.0522C101.047 21.2192 100.832 21.3026 100.57 21.3026H90.0511V25.9537H101.643C101.905 25.9537 102.12 26.0491 102.287 26.2399C102.478 26.4069 102.573 26.6215 102.573 26.8839V30.4258C102.573 30.6882 102.478 30.9029 102.287 31.0698C102.12 31.2368 101.905 31.3203 101.643 31.3203H84.4699Z" fill="#22B94C"/>
<path d="M113.149 31.3203C112.91 31.3203 112.696 31.2368 112.505 31.0698C112.338 30.879 112.255 30.6643 112.255 30.4258V22.8053L103.99 7.4211C103.918 7.30184 103.883 7.17066 103.883 7.02755C103.883 6.83674 103.954 6.66978 104.097 6.52667C104.264 6.35971 104.443 6.27623 104.634 6.27623H109.357C109.69 6.27623 109.965 6.35971 110.179 6.52667C110.394 6.69363 110.549 6.87252 110.645 7.06333L115.618 16.0434L120.591 7.06333C120.686 6.87252 120.841 6.69363 121.056 6.52667C121.27 6.35971 121.545 6.27623 121.879 6.27623H126.601C126.792 6.27623 126.959 6.35971 127.102 6.52667C127.269 6.66978 127.352 6.83674 127.352 7.02755C127.352 7.17066 127.317 7.30184 127.245 7.4211L118.981 22.8053V30.4258C118.981 30.6882 118.885 30.9029 118.694 31.0698C118.527 31.2368 118.313 31.3203 118.05 31.3203H113.149Z" fill="#22B94C"/>
<path d="M130.486 31.3203C130.224 31.3203 129.997 31.2368 129.807 31.0698C129.64 30.9029 129.556 30.6882 129.556 30.4258V7.20644C129.556 6.94407 129.64 6.72941 129.807 6.56245C129.997 6.37163 130.224 6.27623 130.486 6.27623H134.529C135.125 6.27623 135.555 6.53859 135.817 7.06333L141.971 18.0827L148.16 7.06333C148.423 6.53859 148.852 6.27623 149.448 6.27623H153.491C153.753 6.27623 153.968 6.37163 154.135 6.56245C154.326 6.72941 154.421 6.94407 154.421 7.20644V30.4258C154.421 30.6882 154.326 30.9029 154.135 31.0698C153.968 31.2368 153.753 31.3203 153.491 31.3203H148.947C148.709 31.3203 148.494 31.2368 148.303 31.0698C148.136 30.879 148.053 30.6643 148.053 30.4258V17.4029L144.189 24.4868C143.879 25.0354 143.462 25.3097 142.937 25.3097H141.005C140.528 25.3097 140.11 25.0354 139.753 24.4868L135.924 17.4029V30.4258C135.924 30.6882 135.829 30.9029 135.638 31.0698C135.471 31.2368 135.257 31.3203 134.994 31.3203H130.486Z" fill="#22B94C"/>
<path d="M159.468 31.3203C159.229 31.3203 159.015 31.2368 158.824 31.0698C158.657 30.879 158.573 30.6643 158.573 30.4258V7.17066C158.573 6.90829 158.657 6.69363 158.824 6.52667C159.015 6.35971 159.229 6.27623 159.468 6.27623H164.584C164.846 6.27623 165.061 6.35971 165.228 6.52667C165.395 6.69363 165.478 6.90829 165.478 7.17066V30.4258C165.478 30.6643 165.395 30.879 165.228 31.0698C165.061 31.2368 164.846 31.3203 164.584 31.3203H159.468Z" fill="#22B94C"/>
<path d="M170.527 31.3203C170.288 31.3203 170.073 31.2368 169.883 31.0698C169.716 30.879 169.632 30.6643 169.632 30.4258V7.20644C169.632 6.94407 169.716 6.72941 169.883 6.56245C170.05 6.37163 170.264 6.27623 170.527 6.27623H187.413C187.676 6.27623 187.89 6.37163 188.057 6.56245C188.248 6.72941 188.344 6.94407 188.344 7.20644V10.7484C188.344 11.0107 188.248 11.2254 188.057 11.3924C187.89 11.5593 187.676 11.6428 187.413 11.6428H176.108V16.1865H186.626C186.889 16.1865 187.103 16.2819 187.27 16.4727C187.461 16.6397 187.557 16.8544 187.557 17.1167V20.3724C187.557 20.6348 187.461 20.8614 187.27 21.0522C187.103 21.2192 186.889 21.3026 186.626 21.3026H176.108V25.9537H187.7C187.962 25.9537 188.177 26.0491 188.344 26.2399C188.534 26.4069 188.63 26.6215 188.63 26.8839V30.4258C188.63 30.6882 188.534 30.9029 188.344 31.0698C188.177 31.2368 187.962 31.3203 187.7 31.3203H170.527Z" fill="#22B94C"/>
<path d="M1.53088 31.3206C1.29064 31.3206 1.07443 31.2557 0.882249 31.1259C0.714086 30.9775 0.630005 30.8106 0.630005 30.6252V12.5429C0.630005 12.3389 0.714086 12.172 0.882249 12.0421C1.07443 11.9123 1.29064 11.8474 1.53088 11.8474H6.68385C6.94811 11.8474 7.16432 11.9123 7.33248 12.0421C7.50064 12.172 7.58472 12.3389 7.58472 12.5429V30.6252C7.58472 30.8106 7.50064 30.9775 7.33248 31.1259C7.16432 31.2557 6.94811 31.3206 6.68385 31.3206H1.53088Z" fill="#6553BF"/>
<path d="M1.53088 21.0624C1.29064 21.0624 1.07443 21.0317 0.882249 20.9703C0.714086 20.9001 0.630005 20.8211 0.630005 20.7333V12.1765C0.630005 12.08 0.714086 12.001 0.882249 11.9396C1.07443 11.8781 1.29064 11.8474 1.53088 11.8474H6.68385C6.94811 11.8474 7.16432 11.8781 7.33248 11.9396C7.50064 12.001 7.58472 12.08 7.58472 12.1765V20.7333C7.58472 20.8211 7.50064 20.9001 7.33248 20.9703C7.16432 21.0317 6.94811 21.0624 6.68385 21.0624H1.53088Z" fill="#166259"/>
<path d="M11.4415 31.321C11.2013 31.321 10.9851 31.2399 10.7929 31.0776C10.6247 30.8921 10.5406 30.6835 10.5406 30.4517V7.84883C10.5406 7.59383 10.6247 7.38518 10.7929 7.22291C10.9851 7.06063 11.2013 6.97949 11.4415 6.97949H16.5945C16.8588 6.97949 17.075 7.06063 17.2431 7.22291C17.4113 7.38518 17.4954 7.59383 17.4954 7.84883V30.4517C17.4954 30.6835 17.4113 30.8921 17.2431 31.0776C17.075 31.2399 16.8588 31.321 16.5945 31.321H11.4415Z" fill="#6553BF"/>
<path d="M21.6996 31.3207C21.4593 31.3207 21.2431 31.2187 21.0509 31.0147C20.8828 30.7816 20.7987 30.5193 20.7987 30.2278V1.81286C20.7987 1.49228 20.8828 1.22998 21.0509 1.02598C21.2431 0.821974 21.4593 0.719971 21.6996 0.719971H26.8526C27.1168 0.719971 27.333 0.821974 27.5012 1.02598C27.6693 1.22998 27.7534 1.49228 27.7534 1.81286V30.2278C27.7534 30.5193 27.6693 30.7816 27.5012 31.0147C27.333 31.2187 27.1168 31.3207 26.8526 31.3207H21.6996Z" fill="#6553BF"/>
</svg>
