<svg width="139" height="28" viewBox="0 0 139 28" fill="none" xmlns="http://www.w3.org/2000/svg">
<path fill-rule="evenodd" clip-rule="evenodd" d="M22.601 0.110351L19.7257 0.209818L20.7889 1.10502C21.3737 1.59738 21.8748 2.08974 21.902 2.19915C21.9295 2.30856 21.2152 2.9352 20.3146 3.59168C19.4142 4.24816 17.0541 5.99778 15.0703 7.47963C8.27918 12.5524 8.59902 12.343 8.04475 12.0778C7.77472 11.9485 6.66504 11.2568 5.57885 10.5404L3.60398 9.23801L1.90197 10.1947L0.199968 11.1511L0.178002 12.4442C0.165883 13.1554 0.140319 14.0283 0.121193 14.3838C0.102067 14.7393 0.110778 15.0303 0.140887 15.0303C0.170806 15.0303 0.962537 14.5827 1.90046 14.0357C2.83838 13.4886 3.69885 13.041 3.81265 13.041C3.92646 13.041 4.24592 13.2043 4.52239 13.4041C5.45311 14.0767 8.12978 15.6271 8.35985 15.6271C8.48521 15.6271 9.02187 15.284 9.55228 14.8646C10.0825 14.4453 11.5817 13.2984 12.8836 12.3161C14.1854 11.3338 16.6566 9.46956 18.3751 8.17351C20.0936 6.87727 21.7973 5.5848 22.1613 5.30112C22.525 5.01744 23.0789 4.5957 23.3921 4.36414L23.9614 3.9428L25.1449 5.15411L26.3284 6.36521V3.1781C26.3284 0.00252944 26.3269 -0.0090086 25.9023 0.000938061C25.6679 0.00650819 24.1824 0.0556447 22.601 0.110351ZM53.9511 7.47426C51.9119 7.83632 50.5155 8.93165 49.6435 10.8527C49.1782 11.8777 49.1468 12.1293 49.1468 14.8314C49.1468 17.5854 49.1706 17.7671 49.6751 18.8463C50.8575 21.3755 53.3779 22.6013 56.4801 22.1555C58.5657 21.8559 60.2043 20.6196 61.0176 18.7319C61.4106 17.8202 61.4554 17.4199 61.4554 14.8314C61.4554 12.1452 61.4217 11.8715 60.9663 10.8516C60.1041 8.92071 58.8089 7.89322 56.728 7.48898C55.4924 7.24907 55.228 7.24768 53.9511 7.47426ZM33.1929 7.60258C33.0097 7.68016 32.9562 9.29689 32.9562 14.7415C32.9562 21.4967 32.9709 21.7883 33.3224 21.986C33.7795 22.2429 35.7928 22.2512 36.1753 21.9976C36.4049 21.8456 36.4776 21.1117 36.5541 18.1713L36.6488 14.533L37.5363 16.2315C38.6691 18.3993 38.9353 18.6535 39.9905 18.5737L40.8144 18.5117L41.9508 16.5223L43.0871 14.533L43.1369 18.1138C43.1945 22.2546 43.167 22.1919 44.9348 22.1919C46.9303 22.1919 46.7797 22.7899 46.7797 14.8642C46.7797 9.75046 46.7205 7.88606 46.5525 7.7096C46.2491 7.39091 43.9133 7.39867 43.5088 7.71955C43.2295 7.94116 42.6232 8.97939 40.6426 12.6268C40.3207 13.2197 39.9721 13.7309 39.8679 13.7629C39.7638 13.7952 38.9543 12.5144 38.069 10.917C37.1837 9.31957 36.3467 7.89083 36.2092 7.74183C35.9644 7.47685 33.7325 7.3738 33.1929 7.60258ZM64.2486 7.60258C64.0654 7.68016 64.0118 9.29689 64.0118 14.7415C64.0118 21.4967 64.0266 21.7883 64.3781 21.986C64.8352 22.2429 66.8485 22.2512 67.231 21.9976C67.4609 21.8452 67.5331 21.1056 67.6098 18.1148L67.7044 14.4202L70.0459 18.1124C71.3336 20.1429 72.5423 21.8916 72.7319 21.9982C73.2178 22.2713 75.0633 22.2395 75.3358 21.9532C75.504 21.7766 75.5631 19.8935 75.5631 14.7134C75.5631 8.51289 75.5288 7.69866 75.2635 7.59163C74.6954 7.36266 72.373 7.45994 72.213 7.71955C72.1288 7.85641 72.0172 9.60782 71.9651 11.6117L71.8705 15.2551L69.9473 12.2085C66.7355 7.12036 67.0508 7.4683 65.6676 7.4866C65.0174 7.49515 64.3788 7.54747 64.2486 7.60258ZM78.8296 7.60258C78.6465 7.68016 78.5929 9.29689 78.5929 14.7415C78.5929 21.4967 78.6077 21.7883 78.9591 21.986C79.4516 22.2628 88.1491 22.2628 88.6417 21.986C88.9454 21.8152 89.0079 21.5619 89.0079 20.501C89.0079 19.4206 88.9484 19.1884 88.6248 19.0066C88.382 18.8702 87.1334 18.8129 85.2161 18.8503L82.1902 18.9095L82.1906 17.6662L82.1908 16.4229H85.1028C87.3801 16.4229 88.0632 16.3616 88.2368 16.1418C88.3703 15.9729 88.436 15.3584 88.4019 14.6001L88.3451 13.3394L85.268 13.2847L82.1908 13.23V11.9467V10.6632L85.4573 10.6089L88.7239 10.5543L88.7805 9.17972C88.8204 8.2143 88.764 7.75615 88.5911 7.64097C88.3305 7.4673 79.2331 7.43149 78.8296 7.60258ZM90.5639 7.70622C90.3912 7.88765 90.4861 8.21927 90.9762 9.14849C91.8635 10.8317 92.7751 12.5944 94.0098 15.0154L95.0676 17.0893V19.4347C95.0676 21.55 95.1035 21.8002 95.4338 21.986C95.9413 22.2713 98.1585 22.247 98.4382 21.9532C98.5895 21.7943 98.6655 20.9214 98.6655 19.3386V16.963L100.062 14.2559C100.83 12.7671 101.624 11.2357 101.827 10.8527C103.625 7.45835 103.626 7.47088 101.548 7.47088C100.647 7.47088 99.9452 7.56856 99.7625 7.71955C99.597 7.85641 98.8895 9.16241 98.1904 10.6218C97.4912 12.0814 96.8536 13.2004 96.7735 13.1085C96.6932 13.0167 96.0592 11.7802 95.3643 10.3608C94.6695 8.9412 93.9988 7.71179 93.8742 7.62844C93.5042 7.38136 90.8129 7.44462 90.5639 7.70622ZM105.53 7.60258C105.347 7.68016 105.293 9.29689 105.293 14.7415C105.293 21.4967 105.308 21.7883 105.659 21.986C106.117 22.2429 108.13 22.2512 108.512 21.9976C108.742 21.8456 108.815 21.1117 108.891 18.1713L108.986 14.533L109.873 16.2315C111.006 18.3993 111.272 18.6535 112.328 18.5737L113.151 18.5117L114.288 16.5223L115.424 14.533L115.474 18.1138C115.532 22.2546 115.504 22.1919 117.272 22.1919C119.267 22.1919 119.117 22.7899 119.117 14.8642C119.117 9.75046 119.058 7.88606 118.89 7.7096C118.586 7.39091 116.25 7.39867 115.846 7.71955C115.567 7.94116 114.96 8.97939 112.98 12.6268C112.658 13.2197 112.309 13.7309 112.205 13.7629C112.101 13.7952 111.291 12.5144 110.406 10.917C109.521 9.31957 108.684 7.89083 108.546 7.74183C108.301 7.47685 106.07 7.3738 105.53 7.60258ZM122.383 7.60258C122.2 7.68016 122.147 9.29689 122.147 14.7415C122.147 22.8138 121.991 22.1919 124.014 22.1919C125.844 22.1919 125.745 22.6193 125.745 14.7576C125.745 9.72679 125.685 7.88606 125.517 7.7096C125.294 7.47526 122.878 7.3927 122.383 7.60258ZM128.822 7.60258C128.639 7.68016 128.585 9.29689 128.585 14.7415C128.585 21.4967 128.6 21.7883 128.951 21.986C129.444 22.2628 138.141 22.2628 138.634 21.986C138.938 21.8152 139 21.5619 139 20.501C139 19.4206 138.941 19.1884 138.617 19.0066C138.374 18.8702 137.125 18.8129 135.208 18.8503L132.182 18.9095L132.183 17.6662L132.183 16.4229H135.095C137.372 16.4229 138.055 16.3616 138.229 16.1418C138.362 15.9729 138.428 15.3584 138.394 14.6001L138.337 13.3394L135.26 13.2847L132.183 13.23V11.9467V10.6632L135.449 10.6089L138.716 10.5543L138.773 9.17972C138.813 8.2143 138.756 7.75615 138.583 7.64097C138.323 7.4673 129.225 7.43149 128.822 7.60258ZM20.8842 10.0837L18.9432 11.8788V19.9394V28L19.4755 27.6324C19.7685 27.4303 21.3875 26.2862 23.0734 25.0902L26.139 22.9159V17.3278V11.7396L24.4821 10.014L22.8252 8.2885L20.8842 10.0837ZM56.6149 10.8183C57.6825 11.4199 57.9522 12.2059 57.9522 14.7158C57.9522 18.0681 57.2705 19.1329 55.1536 19.0874C54.0382 19.0635 53.4806 18.6965 53.0109 17.6772C52.6566 16.9087 52.619 16.5389 52.6833 14.4771C52.7663 11.8315 52.9111 11.4523 54.0702 10.8494C55.0137 10.3584 55.7821 10.349 56.6149 10.8183ZM12.8521 16.4398C11.1509 17.7621 9.65908 18.9481 9.53694 19.0757C9.39037 19.2288 9.26918 20.7419 9.1798 23.5347L9.04459 27.7621H12.5736H16.1028V20.8989C16.1028 17.1241 16.0673 14.0357 16.024 14.0357C15.9806 14.0357 14.5534 15.1175 12.8521 16.4398ZM1.78949 17.3008L0.101499 18.3414L0.0507496 23.0517L0 27.7621H3.31728H6.63456V23.0967V18.4313L5.82976 17.8544C5.38703 17.5371 4.67672 17.0485 4.25122 16.7688L3.47748 16.2602L1.78949 17.3008Z" fill="white"/>
</svg>
