<svg width="209" height="218" viewBox="0 0 209 218" fill="none" xmlns="http://www.w3.org/2000/svg">
<g opacity="0.5">
<circle cx="163.007" cy="165.434" r="46.5266" transform="rotate(-180 163.007 165.434)" fill="#533DB5"/>
<circle cx="172.751" cy="171.28" r="46.5266" transform="rotate(-180 172.751 171.28)" fill="#F2F0FA"/>
<circle cx="172.751" cy="171.28" r="37.7572" transform="rotate(-180 172.751 171.28)" stroke="#533DB5" stroke-width="1.94876"/>
<path d="M130.854 191.011L123.058 188.818" stroke="#F2F0FA" stroke-width="0.730785" stroke-linecap="round"/>
<path d="M126.955 179.075L118.186 176.639" stroke="#F2F0FA" stroke-width="0.730785" stroke-linecap="round"/>
<path d="M126.768 163.292L117.21 159.222" stroke="#F2F0FA" stroke-width="0.730785" stroke-linecap="round"/>
<path d="M133.664 145.946L123.301 141.318" stroke="#F2F0FA" stroke-width="0.730785" stroke-linecap="round"/>
<path d="M148.225 131.087L137.862 126.458" stroke="#F2F0FA" stroke-width="0.730785" stroke-linecap="round"/>
<path d="M169.605 124.51L158.812 119.394" stroke="#F2F0FA" stroke-width="0.730785" stroke-linecap="round"/>
<path d="M170.927 194.374H174.971L175.005 190.383C182.425 189.812 186.725 185.838 186.743 179.841C186.725 173.948 182.322 170.82 176.222 169.438L175.211 169.196L175.279 160.555C177.558 161.091 178.946 162.56 179.152 164.737H186.263C186.177 159.017 181.945 154.922 175.348 154.196L175.382 150.135H171.338L171.304 154.161C164.605 154.818 159.875 158.896 159.91 164.789C159.893 170.008 163.542 172.998 169.471 174.432L171.116 174.847L171.03 183.989C168.237 183.453 166.352 181.725 166.164 178.839H158.984C159.156 185.82 163.696 189.726 170.961 190.365L170.927 194.374ZM175.074 183.989L175.142 175.918C177.798 176.765 179.238 177.854 179.255 179.824C179.238 181.915 177.661 183.47 175.074 183.989ZM171.167 168.142C169.025 167.399 167.483 166.275 167.517 164.288C167.517 162.439 168.82 161.005 171.236 160.504L171.167 168.142Z" fill="#533DB5"/>
<circle cx="46.5261" cy="126.607" r="46.5266" transform="rotate(-180 46.5261 126.607)" fill="#B33639"/>
<circle cx="56.2703" cy="132.453" r="46.5266" transform="rotate(-180 56.2703 132.453)" fill="#FFEDED"/>
<circle cx="56.2704" cy="132.453" r="37.7572" transform="rotate(-180 56.2704 132.453)" stroke="#B33639" stroke-width="1.94876"/>
<path d="M14.373 152.184L6.57801 149.991" stroke="#FFEDED" stroke-width="0.730785" stroke-linecap="round"/>
<path d="M10.4746 140.248L1.70519 137.812" stroke="#FFEDED" stroke-width="0.730785" stroke-linecap="round"/>
<path d="M10.2871 124.465L0.729822 120.395" stroke="#FFEDED" stroke-width="0.730785" stroke-linecap="round"/>
<path d="M17.1836 107.119L6.82082 102.491" stroke="#FFEDED" stroke-width="0.730785" stroke-linecap="round"/>
<path d="M31.7441 92.2598L21.3814 87.6315" stroke="#FFEDED" stroke-width="0.730785" stroke-linecap="round"/>
<path d="M53.127 85.6829L42.3335 80.5674" stroke="#FFEDED" stroke-width="0.730785" stroke-linecap="round"/>
<path d="M54.4468 155.548H58.4905L58.5248 151.556C65.9441 150.985 70.2449 147.011 70.262 141.014C70.2449 135.121 65.8413 131.994 59.7414 130.611L58.7304 130.369L58.799 121.729C61.0779 122.264 62.4658 123.733 62.6714 125.911H69.7823C69.6966 120.191 65.4643 116.095 58.8675 115.369L58.9018 111.308H54.858L54.8237 115.335C48.1241 115.991 43.3949 120.07 43.4292 125.962C43.412 131.181 47.0617 134.171 52.9903 135.605L54.6352 136.02L54.5496 145.162C51.7566 144.626 49.8718 142.898 49.6833 140.012H42.5039C42.6753 146.994 47.2159 150.899 54.481 151.538L54.4468 155.548ZM58.5933 145.162L58.6619 137.091C61.3178 137.938 62.7571 139.027 62.7742 140.997C62.7571 143.088 61.1807 144.643 58.5933 145.162ZM54.6866 129.315C52.5448 128.572 51.0027 127.449 51.037 125.461C51.037 123.612 52.3392 122.178 54.7552 121.677L54.6866 129.315Z" fill="#B33639"/>
<circle r="46.5266" transform="matrix(1 0 0 -1 147.271 46.5266)" fill="#B8006E"/>
<circle r="46.5266" transform="matrix(1 0 0 -1 137.527 52.3733)" fill="#FFEBF7"/>
<circle r="37.7572" transform="matrix(1 0 0 -1 137.527 52.3729)" stroke="#B8006E" stroke-width="1.94876"/>
<path d="M179.424 72.104L187.219 69.9117" stroke="#FFEBF7" stroke-width="0.730785" stroke-linecap="round"/>
<path d="M183.322 60.1681L192.092 57.7321" stroke="#FFEBF7" stroke-width="0.730785" stroke-linecap="round"/>
<path d="M183.51 44.3851L193.067 40.3148" stroke="#FFEBF7" stroke-width="0.730785" stroke-linecap="round"/>
<path d="M176.613 27.0397L186.976 22.4114" stroke="#FFEBF7" stroke-width="0.730785" stroke-linecap="round"/>
<path d="M162.055 12.1799L172.417 7.55163" stroke="#FFEBF7" stroke-width="0.730785" stroke-linecap="round"/>
<path d="M140.672 5.60266L151.465 0.487181" stroke="#FFEBF7" stroke-width="0.730785" stroke-linecap="round"/>
<path d="M134.943 74.2395H138.987L139.021 70.2476C146.44 69.6773 150.741 65.7027 150.758 59.7062C150.741 53.8133 146.337 50.6854 140.237 49.303L139.227 49.061L139.295 40.4205C141.574 40.9562 142.962 42.4251 143.167 44.6025H150.278C150.193 38.8825 145.96 34.7869 139.364 34.0611L139.398 30H135.354L135.32 34.0265C128.62 34.6832 123.891 38.7615 123.925 44.6543C123.908 49.8732 127.558 52.8629 133.486 54.2972L135.131 54.7119L135.046 63.8536C132.253 63.3179 130.368 61.5898 130.179 58.7039H123C123.171 65.6854 127.712 69.5909 134.977 70.2303L134.943 74.2395ZM139.089 63.8536L139.158 55.7834C141.814 56.6301 143.253 57.7188 143.27 59.6889C143.253 61.7799 141.677 63.3352 139.089 63.8536ZM135.183 48.0069C133.041 47.2638 131.499 46.1405 131.533 44.1532C131.533 42.3041 132.835 40.8698 135.251 40.3686L135.183 48.0069Z" fill="#B8006E"/>
</g>
</svg>
